<?xml version="1.0" encoding="UTF-8"?><svg id="a" xmlns="http://www.w3.org/2000/svg" viewBox="0 0 100 100"><defs><style>.b{fill:#7161f5;}</style></defs><path class="b" d="M68.33,91.43c-.89,0-1.69-.18-2.41-.54s-1.34-.95-1.86-1.78c-.51-.83-.92-1.91-1.2-3.26-.29-1.34-.44-3-.44-4.97s.18-3.78,.54-5.22,.86-2.61,1.5-3.51c.63-.9,1.38-1.55,2.25-1.96,.86-.41,1.81-.61,2.84-.61s2.11,.19,3.08,.56c.97,.37,1.89,1.02,2.75,1.96v15.84c-.48,.58-.96,1.08-1.45,1.51-.5,.43-1.02,.79-1.57,1.08s-1.16,.51-1.82,.67c-.66,.15-1.4,.23-2.21,.23Z"/><path class="b" d="M100,10V90c0,5.52-4.48,10-10,10h-25.56c1.27,0,2.45-.13,3.55-.38,1.09-.25,2.11-.61,3.06-1.08,.94-.47,1.83-1.02,2.64-1.67,.82-.65,1.6-1.37,2.34-2.16l.87,2.84c.19,.63,.52,1.09,.99,1.41,.46,.31,1.05,.46,1.74,.46h6.91V45.53h-11.16v18.9c-1.08-.91-2.28-1.65-3.61-2.21-1.34-.57-2.96-.85-4.88-.85-2.38,0-4.55,.49-6.52,1.48-1.97,.98-3.65,2.34-5.06,4.08-1.4,1.74-2.49,3.81-3.25,6.2-.77,2.38-1.16,4.97-1.16,7.75,0,3.03,.35,5.72,1.03,8.09,.68,2.36,1.63,4.36,2.83,5.99s2.62,2.88,4.28,3.74c1.66,.87,3.46,1.3,5.4,1.3H10c-1.17,0-2.3-.2-3.35-.58h4.73c.72,0,1.32-.19,1.8-.59,.48-.4,.86-.85,1.15-1.35l9.79-16.99c.24-.39,.46-.84,.65-1.37l10.51,18.36c.29,.53,.68,.98,1.17,1.37,.49,.38,1.13,.57,1.93,.57h12.16l-16.81-27.5,16.45-24.95h-11.66c-1.03,0-1.85,.51-2.45,1.51l-9.14,15.7c-.19,.31-.37,.61-.52,.9-.16,.29-.3,.59-.42,.9l-10.44-17.68c-.29-.48-.62-.82-.99-1.02-.37-.21-.95-.31-1.74-.31H.65l16.23,25.49L2.08,96.1c-1.3-1.69-2.08-3.8-2.08-6.1V10C0,4.48,4.48,0,10,0H90c5.52,0,10,4.48,10,10Z"/></svg>