<?xml version="1.0" encoding="UTF-8"?><svg id="a" xmlns="http://www.w3.org/2000/svg" viewBox="0 0 100 75"><defs><style>.b{fill:#7161f5;}</style></defs><path class="b" d="M100,35.83v3.35c-.03,.18-.07,.36-.09,.54-.17,1.46-.28,2.92-.52,4.37-.76,4.64-2.43,9.09-4.9,13.1-3.63,6.02-8.89,10.88-15.19,14-3.67,1.85-7.64,3.04-11.72,3.51-.9,.11-1.81,.2-2.72,.3H29.74c-.18-.03-.35-.08-.53-.1-3.52-.21-6.98-1.06-10.2-2.49-7.07-3.15-12.35-8.25-15.8-15.27-1.53-3.1-2.51-6.44-2.92-9.87l-.3-2.51v-3.25c.03-.18,.08-.36,.1-.54,.17-3.1,.82-6.16,1.92-9.06,2.98-7.83,8.19-13.65,15.57-17.41,3.79-1.92,7.95-3.01,12.2-3.21,2.09-.1,4.19,0,6.26,.3,.22,.02,.43-.05,.59-.2,2.95-3.09,6.42-5.64,10.24-7.54,3.69-1.86,7.67-3.05,11.77-3.53,.98-.11,1.95-.21,2.92-.31h3c.19,.03,.39,.07,.58,.09,1.49,.18,2.98,.29,4.45,.54,4.55,.78,8.91,2.46,12.8,4.94,5.99,3.73,10.79,9.1,13.83,15.47,1.83,3.75,3,7.78,3.46,11.93,.11,.95,.2,1.91,.3,2.86M44.08,14.16c.06,.08,.08,.12,.1,.13,2.05,1.03,4.02,2.24,5.87,3.61,.12,.08,.41,.05,.55-.04,5.09-3.28,10.61-4.41,16.54-3.34,5.81,1.05,10.54,4,14.15,8.72,4.09,5.33,5.65,11.37,4.53,18.08-.76,4.5-2.53,8.54-5.54,11.92-5.5,6.17-12.39,8.72-20.49,7.64-4.99-.67-9.29-2.85-12.86-6.52-4.57-4.7-9.18-9.37-13.77-14.05-.61-.62-1.29-1.13-2.17-1.24-1.51-.2-2.98,.61-3.6,2-.59,1.25-.52,2.67,.77,3.95,5.11,5.11,10.18,10.26,15.29,15.38,.88,.87,1.81,1.69,2.81,2.43,3.73,2.75,7.94,4.28,12.5,4.89,3.57,.48,7.12,.38,10.65-.42,6.72-1.54,12.28-5.02,16.67-10.4,3.58-4.38,5.86-9.68,6.57-15.29,.44-3.27,.35-6.59-.27-9.83-1.02-5.29-3.22-10.03-6.75-14.07-6.74-7.69-15.22-11.12-25.31-10.36-3.86,.32-7.61,1.44-11,3.29-1.87,.99-3.62,2.17-5.23,3.54m-2.47,53.71c-.14-.13-.28-.26-.42-.39-2.09-2.01-4.19-4-6.26-6.04-.34-.38-.83-.59-1.33-.57-2.09,.05-4.19,.06-6.25-.42-10.25-2.35-16.21-13.69-12.43-23.67,2.98-7.87,11.23-12.66,19.37-11.18,3.65,.66,6.85,2.23,9.47,4.99,3.21,3.37,6.51,6.63,9.75,9.96,.73,.76,1.58,1.1,2.6,.96,1.32-.19,2.37-.83,2.85-2.15,.47-1.29,.24-2.52-.72-3.52-3.4-3.5-6.72-7.09-10.26-10.45-6.86-6.5-14.95-8.44-23.9-5.67-12.03,3.72-19.08,16.36-16.33,28.83,2.51,11.36,12.28,19.33,23.71,19.35h9.58c.16,0,.32-.02,.56-.03"/></svg>