<?xml version="1.0" encoding="UTF-8"?><svg id="a" xmlns="http://www.w3.org/2000/svg" viewBox="0 0 100 100"><defs><style>.b{fill:#7161f5;}</style></defs><g><path class="b" d="M28.87,65.58l4.83,14.37h-14.33l4.82-14.29c.36-.92,.75-2,1.15-3.24,.41-1.25,.81-2.61,1.19-4.07,.41,1.44,.82,2.78,1.24,4.01,.42,1.24,.79,2.31,1.1,3.22Z"/><path class="b" d="M26.56,61.89c.09,.27,.18,.53,.26,.79,.26,.77,.5,1.47,.72,2.11l.38,1.11,4.39,13.05h-11.55l4.36-12.93c.4-1.03,.8-2.14,1.17-3.29,.09-.27,.18-.56,.27-.84m-.03-3.54c-.38,1.46-.78,2.82-1.19,4.07-.4,1.24-.79,2.32-1.15,3.24l-4.82,14.29h14.33l-4.83-14.37c-.31-.91-.68-1.98-1.1-3.22-.42-1.23-.83-2.57-1.24-4.01h0Z"/></g><g><path class="b" d="M41.02,99.26c.69,.49,1.56,.74,2.61,.74H10c-.1,0-.2,0-.29-.01,.92-.03,1.7-.3,2.35-.8,.7-.54,1.16-1.15,1.4-1.82l3.1-9.14h19.94l3.1,9.14c.26,.77,.74,1.4,1.42,1.89Z"/><path class="b" d="M35.78,89.23l2.87,8.46c.16,.48,.39,.91,.68,1.31H13.68c.32-.4,.56-.84,.73-1.31l2.87-8.46h18.5m.72-1H16.56l-3.1,9.14c-.24,.67-.7,1.28-1.4,1.82-.65,.5-1.43,.77-2.35,.8,.09,0,.19,0,.29,0H43.63c-1.05,0-1.92-.25-2.61-.74-.68-.49-1.16-1.12-1.42-1.89l-3.1-9.14h0Z"/></g><g><path class="b" d="M90,0H10C4.48,0,0,4.48,0,10V90c0,2.07,.63,3.99,1.71,5.59L20.3,47.55h12.46l20.3,52.45h4.61V62.67h11.16v37.33h21.17c5.52,0,10-4.48,10-10V10c0-5.52-4.48-10-10-10Zm-20.41,54.95c-.36,.78-.85,1.46-1.48,2.05-.62,.59-1.35,1.05-2.18,1.4-.82,.35-1.71,.52-2.64,.52s-1.77-.17-2.56-.52c-.79-.35-1.49-.81-2.1-1.4-.62-.59-1.1-1.27-1.44-2.05-.35-.78-.53-1.62-.53-2.51s.18-1.76,.53-2.55c.34-.79,.82-1.49,1.44-2.09,.61-.6,1.31-1.07,2.1-1.4,.79-.34,1.65-.51,2.56-.51s1.82,.17,2.64,.51c.83,.33,1.56,.8,2.18,1.4,.63,.6,1.12,1.3,1.48,2.09s.54,1.64,.54,2.55-.18,1.73-.54,2.51Z"/><path class="b" d="M90,1c4.96,0,9,4.04,9,9V90c0,4.96-4.04,9-9,9h-20.17V61.67h-13.16v37.33h-2.92l-20.06-51.81-.25-.64h-13.83l-.25,.64L1.58,93.17c-.38-1.01-.58-2.08-.58-3.17V10C1,5.04,5.04,1,10,1H90m-26.71,58.92c1.08,0,2.1-.2,3.03-.6,.96-.4,1.79-.94,2.48-1.59,.72-.67,1.29-1.47,1.7-2.36,.42-.91,.63-1.89,.63-2.93s-.21-2.05-.63-2.96-.99-1.72-1.69-2.39c-.71-.69-1.56-1.23-2.49-1.61-.94-.39-1.96-.59-3.02-.59s-2.04,.2-2.95,.59c-.9,.38-1.71,.92-2.41,1.6-.71,.69-1.27,1.5-1.66,2.4-.41,.92-.62,1.92-.62,2.96s.21,2.01,.61,2.91c.39,.89,.95,1.69,1.66,2.37,.68,.66,1.48,1.19,2.39,1.6,.91,.4,1.91,.6,2.97,.6M90,0H10C4.48,0,0,4.48,0,10V90c0,2.07,.63,3.99,1.71,5.59L20.3,47.55h12.46l20.3,52.45h4.61V62.67h11.16v37.33h21.17c5.52,0,10-4.48,10-10V10c0-5.52-4.48-10-10-10h0Zm-26.71,58.92c-.91,0-1.77-.17-2.56-.52-.79-.35-1.49-.81-2.1-1.4-.62-.59-1.1-1.27-1.44-2.05-.35-.78-.53-1.62-.53-2.51s.18-1.76,.53-2.55c.34-.79,.82-1.49,1.44-2.09,.61-.6,1.31-1.07,2.1-1.4,.79-.34,1.65-.51,2.56-.51s1.82,.17,2.64,.51c.83,.33,1.56,.8,2.18,1.4,.63,.6,1.12,1.3,1.48,2.09s.54,1.64,.54,2.55-.18,1.73-.54,2.51-.85,1.46-1.48,2.05c-.62,.59-1.35,1.05-2.18,1.4-.82,.35-1.71,.52-2.64,.52h0Z"/></g></svg>