<?xml version="1.0" encoding="UTF-8"?><svg id="a" xmlns="http://www.w3.org/2000/svg" viewBox="0 0 100 81.23"><defs><style>.b{fill:#7161f5;}</style></defs><path class="b" d="M52.12,45.67c.19-3.33,1.83-6.28,4.29-8.36,2.59-2.15,5.85-3.32,9.22-3.29,3.54,0,6.8,1.25,9.21,3.29,2.47,2.08,4.1,5.03,4.28,8.35,.19,3.43-1.19,6.61-3.6,8.97-2.66,2.54-6.21,3.94-9.89,3.91-3.68,.04-7.24-1.37-9.9-3.91-2.42-2.36-3.79-5.54-3.6-8.97m-21.5,6.74c.03,1.31,.44,3.84,1.07,5.83,1.35,4.27,3.61,8.19,6.64,11.49,3.24,3.56,7.2,6.41,11.61,8.34,4.8,2.12,10,3.2,15.25,3.17,5.25,.01,10.44-1.09,15.24-3.22,4.41-1.95,8.36-4.8,11.6-8.38,3.02-3.31,5.28-7.24,6.63-11.51,1.3-4.14,1.66-8.51,1.04-12.81-.59-4.11-2.03-8.06-4.23-11.58-2.04-3.28-4.66-6.16-7.72-8.51h0L56.52,1.24l-.08-.06c-2.05-1.58-5.5-1.57-7.75,0-2.28,1.59-2.54,4.23-.51,5.9h0l13.03,10.6-39.71,.04h-.05c-3.28,0-6.44,2.16-7.06,4.88-.64,2.77,1.58,5.07,5,5.08h0l20.13-.03L3.58,55.23l-.14,.1c-3.39,2.59-4.48,6.91-2.35,9.64,2.17,2.78,6.77,2.78,10.2,.02l19.6-16.04s-.29,2.17-.26,3.46h0Zm50.38,7.25c-4.04,4.12-9.69,6.45-15.81,6.46-6.13,.02-11.78-2.3-15.82-6.41-1.91-1.92-3.38-4.22-4.32-6.76-1.74-4.83-1.31-10.17,1.18-14.66,1.22-2.19,2.85-4.13,4.8-5.71,3.93-3.2,8.92-4.93,14.15-4.94,5.23,0,10.23,1.71,14.16,4.9,2,1.63,3.63,3.56,4.8,5.7,1.22,2.19,1.96,4.61,2.18,7.11,.22,2.56-.12,5.13-1,7.55-.94,2.54-2.41,4.85-4.31,6.78"/></svg>