<?xml version="1.0" encoding="UTF-8"?><svg id="a" xmlns="http://www.w3.org/2000/svg" viewBox="0 0 100 115.32"><defs><style>.b{fill:#7161f5;}</style></defs><path class="b" d="M21.12,86.33l-8.47-5.28c1.62-5.24,14.87-28.99,22.78-28.32-4.59,12.01-7.16,22.7-14.32,33.6Zm16.64-28.35c-3.79,11.32-8.04,21.8-13.39,30.27l25.62,14.83,40.49-23.33v-21.63c-3.92,.43-6.32,2.64-7.63,6.22-2.02,5.52-10.16,12.06-16.71,3.25-10.43,16.63-20.2,13.77-28.39-9.61Zm-3.6-8.45c-6.69-14.31-19.4-14.5-24.84,6.84v22.38c3.77-6.78,15.65-28.39,24.84-29.22Zm54.4,5.24c-6.8-5.1-16.95,1.11-20.87,10.08,3.67,6.05,7.35,4.8,10.46,1.87,2.5-2.36,3.38-9.55,10.41-11.96Zm-29.58,.39c-6.34-12.15-11.72-21.61-18.64-3.87,5.73,4.49,12.6,9.04,18.64,3.87Zm5.45,9.99c-1.36-2.07-2.71-4.57-3.97-7.09-6.03,4.75-13.67,2.45-21.31-3.74,4.68,12.05,8.35,18.74,12.01,20.55,4.14,2.05,9.73-2.7,13.26-9.73ZM6.81,32.72v49.88l43.19,24.94,43.19-24.94V32.72L50,7.78,6.81,32.72Zm93.19-3.89v57.66l-50,28.83L0,86.49V28.83L50,0l50,28.83Zm-9.5,21.81c-7.44-11.22-13.7-11.88-18.29-8.64-4.17,2.95-7.01,9.97-9.29,13.66,1.01,2.27,1.96,3.53,3.07,5.62,5.33-10.14,15.23-16.08,24.51-9.18v-1.46Z"/></svg>