<?xml version="1.0" encoding="UTF-8"?><svg id="a" xmlns="http://www.w3.org/2000/svg" viewBox="0 0 100 45.22"><defs><style>.b{fill:#7161f5;}</style></defs><path class="b" d="M68.79,42.8c.61-2.11,.38-4.04-.65-5.48-.94-1.32-2.52-2.08-4.42-2.17l-36.08-.47c-.22,0-.43-.11-.56-.3-.12-.17-.15-.41-.09-.65,.12-.35,.47-.62,.85-.65l36.4-.47c4.31-.2,9-3.69,10.64-7.97l2.08-5.42c.09-.23,.12-.47,.06-.7C74.68,7.91,65.21,0,53.9,0c-10.43,0-19.28,6.74-22.45,16.09-2.05-1.52-4.66-2.34-7.48-2.08-5.01,.5-9.03,4.51-9.53,9.52-.12,1.29-.03,2.55,.26,3.72-8.18,.23-14.71,6.92-14.71,15.15,0,.73,.06,1.46,.15,2.2,.06,.35,.35,.61,.7,.61H67.44c.38,0,.73-.27,.85-.65l.5-1.78h0Zm11.49-23.18c-.32,0-.67,0-.99,.05-.24,0-.44,.17-.53,.41l-1.41,4.89c-.61,2.11-.38,4.04,.64,5.48,.94,1.32,2.52,2.08,4.43,2.16l7.68,.47c.23,0,.44,.11,.55,.29,.12,.18,.15,.45,.09,.65-.12,.35-.47,.62-.85,.65l-8,.47c-4.34,.2-8.99,3.69-10.64,7.98l-.59,1.49c-.12,.3,.09,.59,.41,.59h27.49c.32,0,.61-.2,.7-.52,.47-1.7,.73-3.49,.73-5.33,0-10.84-8.85-19.7-19.73-19.7"/></svg>