<?xml version="1.0" encoding="UTF-8"?><svg id="a" xmlns="http://www.w3.org/2000/svg" viewBox="0 0 100 80.65"><defs><style>.b{fill:#7161f5;}</style></defs><path class="b" d="M42.24,21.26h-15.49c-7.81-2.05-25.49-1.52-25.49,14.61,0,5.88,2.93,10.01,6.84,11.91-4.9,4.49-7.23,6.61-7.23,9.61,0,2.15,.87,4.13,3.49,5.24-2.79,2.62-4.38,4.52-4.38,8.1,0,6.27,5.48,9.93,19.85,9.93s21.83-5.16,21.83-14.29c0-11.46-8.82-11.04-29.62-12.3l2.62-4.21c5.33,1.48,23.18,1.95,23.18-13.26,0-3.65-1.51-6.19-2.93-8.02l7.31-.55v-6.75Zm-12.39,47.25c0,6.26-20.49,6.27-20.49,.47,0-1.59,1.03-2.93,2.06-4.21,15.18,1.04,18.42,.66,18.42,3.73Zm-9.92-26.29c-10.31,0-9.86-13.9,.23-13.9s9.93,13.9-.23,13.9Zm26.04,19.63v-6.27c5.22-.71,5.32-.39,5.32-2.15V30.09c0-1.66-.4-1.44-5.32-3.18l.87-6.43h16.44V53.44c0,1.27,.08,1.43,1.27,1.59l4.05,.55v6.27h-22.63ZM56.21,14.14c-4.53,0-7.15-2.62-7.15-7.15s2.62-6.99,7.15-6.99,7.23,2.46,7.23,6.99-2.62,7.15-7.23,7.15Zm43.79,44.64c-3.42,1.67-8.42,3.18-12.95,3.18-9.45,0-13.02-3.81-13.02-12.79V28.36c0-1.06,.21-.79-6.19-.79v-7.07c6.99-.79,9.77-4.3,10.64-12.94h7.54c0,12.86-.26,12.07,.64,12.07h11.19v7.94h-11.83v18.97c0,1.35-.96,10.04,11.83,5.24l2.15,6.99Z"/></svg>