<?xml version="1.0" encoding="UTF-8"?><svg id="a" xmlns="http://www.w3.org/2000/svg" viewBox="0 0 100 97.5"><defs><style>.b{fill:#7161f5;}</style></defs><path class="b" d="M33.45,78.51c0,.4-.46,.73-1.05,.73-.67,.06-1.13-.26-1.13-.73,0-.4,.46-.73,1.05-.73,.6-.06,1.13,.26,1.13,.73Zm-6.27-.91c-.14,.4,.26,.87,.87,.99,.52,.2,1.13,0,1.25-.4s-.26-.87-.87-1.05c-.52-.14-1.11,.06-1.25,.46h0Zm8.91-.34c-.58,.14-.99,.52-.93,.99,.06,.4,.58,.67,1.19,.52,.58-.14,.99-.52,.93-.93-.06-.38-.6-.65-1.19-.58ZM49.35,0C21.39,0,0,21.23,0,49.19c0,22.36,14.07,41.49,34.17,48.23,2.58,.46,3.49-1.13,3.49-2.44s-.06-8.15-.06-12.38c0,0-14.11,3.02-17.08-6.01,0,0-2.3-5.87-5.6-7.38,0,0-4.62-3.17,.32-3.1,0,0,5.02,.4,7.78,5.2,4.42,7.78,11.81,5.54,14.7,4.21,.46-3.23,1.77-5.46,3.23-6.79-11.27-1.25-22.64-2.88-22.64-22.28,0-5.54,1.53-8.33,4.76-11.87-.52-1.31-2.24-6.71,.52-13.69,4.21-1.31,13.91,5.44,13.91,5.44,4.03-1.13,8.37-1.71,12.66-1.71s8.63,.58,12.66,1.71c0,0,9.7-6.77,13.91-5.44,2.76,7,1.05,12.38,.52,13.69,3.23,3.57,5.2,6.35,5.2,11.87,0,19.46-11.87,21.01-23.15,22.28,1.85,1.59,3.43,4.62,3.43,9.35,0,6.79-.06,15.2-.06,16.85,0,1.31,.93,2.9,3.49,2.44,20.16-6.69,33.83-25.83,33.83-48.19C100,21.23,77.32,0,49.35,0ZM19.6,69.54c-.26,.2-.2,.67,.14,1.05,.32,.32,.79,.46,1.05,.2,.26-.2,.2-.67-.14-1.05-.32-.32-.79-.46-1.05-.2Zm-2.18-1.63c-.14,.26,.06,.58,.46,.79,.32,.2,.73,.14,.87-.14,.14-.26-.06-.58-.46-.79-.4-.12-.73-.06-.87,.14Zm6.53,7.18c-.32,.26-.2,.87,.26,1.25,.46,.46,1.05,.52,1.31,.2,.26-.26,.14-.87-.26-1.25-.44-.46-1.05-.52-1.31-.2Zm-2.3-2.96c-.32,.2-.32,.73,0,1.19s.87,.67,1.13,.46c.32-.26,.32-.79,0-1.25-.28-.46-.81-.67-1.13-.4h0Z"/></svg>