<?xml version="1.0" encoding="UTF-8"?><svg id="a" xmlns="http://www.w3.org/2000/svg" viewBox="0 0 100 112.36"><defs><style>.b{fill:#7161f5;}</style></defs><path class="b" d="M59.6,12.88l23.1,13.34c3.82-4.02,10.17-4.18,14.19-.36,.69,.66,1.28,1.41,1.76,2.23,2.76,4.81,1.09,10.95-3.73,13.71-.81,.47-1.69,.82-2.61,1.04v26.68c5.37,1.28,8.68,6.66,7.4,12.03-.22,.96-.59,1.87-1.09,2.72-2.77,4.79-8.9,6.43-13.7,3.66-.92-.53-1.76-1.21-2.46-2.01l-22.96,13.26c1.74,5.26-1.11,10.93-6.37,12.67-1.02,.33-2.07,.51-3.14,.51-5.53,0-10.01-4.47-10.02-10,0-.96,.14-1.92,.41-2.85l-23.11-13.33c-3.82,4-10.16,4.15-14.17,.33-4-3.82-4.15-10.16-.33-14.17,1.32-1.39,3.02-2.37,4.89-2.82v-26.68c-5.38-1.29-8.69-6.71-7.4-12.1,.22-.93,.58-1.82,1.05-2.65,2.77-4.79,8.9-6.43,13.7-3.66,.83,.47,1.59,1.07,2.25,1.76l23.12-13.34c-1.57-5.3,1.46-10.87,6.75-12.44C48.07,.14,49.04,0,50,0c5.53,0,10.01,4.47,10.02,9.99,0,.98-.14,1.96-.42,2.89Zm-2.41,4.11c-.09,.1-.17,.18-.27,.27l30.25,52.39c.12-.04,.26-.07,.38-.11v-26.72c-5.36-1.32-8.62-6.75-7.29-12.12,.03-.11,.06-.23,.09-.34l-23.16-13.38Zm-14.12,.28l-.28-.28-23.16,13.35c1.53,5.31-1.53,10.85-6.84,12.38-.12,.04-.24,.07-.36,.1v26.72l.39,.11L43.09,17.26h0Zm9.72,2.38c-1.83,.52-3.76,.52-5.58,0l-30.24,52.38c1.38,1.32,2.35,3.02,2.81,4.87h60.44c.45-1.86,1.44-3.56,2.82-4.89L52.8,19.63Zm4.62,75.97l23-13.29c-.07-.22-.13-.44-.18-.66H19.77l-.1,.39,23.12,13.35c1.82-1.89,4.37-3.06,7.21-3.06s5.57,1.26,7.41,3.27Z"/></svg>