<?xml version="1.0" encoding="UTF-8"?><svg id="a" xmlns="http://www.w3.org/2000/svg" viewBox="0 0 100 100.63"><defs><style>.b{fill:#7161f5;}</style></defs><path class="b" d="M53.77,45.39v-.16c-.03,.05-.07,.11-.1,.16h.1Z"/><path class="b" d="M92.61,0H7.39C3.31,0,0,3.23,0,7.21V93.43c0,3.98,3.31,7.21,7.39,7.21H92.61c4.08,0,7.39-3.23,7.39-7.21V7.21c0-3.98-3.31-7.21-7.39-7.21ZM30.31,84.24H15.21V38.8h15.1v45.44Zm-7.55-51.65h-.1c-5.07,0-8.34-3.49-8.34-7.85s3.38-7.85,8.54-7.85,8.35,3.39,8.45,7.85c0,4.36-3.28,7.85-8.55,7.85Zm62.02,51.65h-15.1v-24.32c0-6.11-2.19-10.27-7.65-10.27-4.17,0-6.66,2.81-7.75,5.53-.4,.97-.5,2.32-.5,3.68v25.38h-15.1s.2-41.18,0-45.44h15.1v6.43c2.01-3.1,5.6-7.5,13.61-7.5,9.94,0,17.39,6.5,17.39,20.46v26.06h0Z"/></svg>