<?xml version="1.0" encoding="UTF-8"?><svg id="a" xmlns="http://www.w3.org/2000/svg" viewBox="0 0 100 99.67"><defs><style>.b{fill:#7161f5;}</style></defs><path class="b" d="M70.56,35.33c.48,.24,.9,.56,1.26,.96l9.79-4.35-9.13-9.05-2.05,12.31,.13,.13Zm-20.31-8.22c.48,.72,.77,1.54,.87,2.39l14.57,6.18c.44-.34,.94-.59,1.48-.74l2.39-14.79-8.88-9.31-10.44,16.05v.22Zm49.73,22.88l-15.62-15.62-10.62,4.35,26.1,11.09s.22,.18,.13,.18Zm-2.61,2.53l-25.06-10.71c-.7,.93-1.76,1.55-2.92,1.7l-2.7,16.49c.8,.81,1.26,1.9,1.26,3.05l15.14,3.18,13.88-13.79v-.26l.39,.35Zm-33.19-14.14l-13.62-5.79c-.96,1.46-2.6,2.32-4.35,2.26h-.83l-11.27,17.41,30.11-13.05v.04c-.02-.23-.02-.46,0-.7,.01-.06,0-.12-.04-.17Zm16.53,30.45l-13.31-2.74c-.5,.64-1.16,1.13-1.92,1.43l-3.17,19.67,18.49-18.32s-.04,.08-.09,.08v-.13Zm-18.62-1.35c-1.28-.52-2.23-1.62-2.57-2.96l-24.79-5.09-.35,.57,22.49,32.54,1.35-1.35,3.83-23.63s.13,.09,.04,.05v-.13Zm-26.84-11.05l24.49,5.05c.71-1.25,2-2.06,3.43-2.18l2.65-16.23-.56-.48-30.45,13.05c.16,.25,.3,.51,.43,.78Zm-10.27,4.09l-.52-.52-10.57,4.35,5.13,5.09,5.83-9.05,.13,.13Zm6.96,1.65c-.74,.34-1.54,.52-2.35,.52-.64,0-1.27-.1-1.88-.3l-6.43,9.35,28.19,27.93,4.96-4.92L31.93,62.17Zm-3.96-11.01c.44-.04,.87-.04,1.31,0,.48-.06,.96-.06,1.43,0l11.4-17.71c-.89-.92-1.39-2.15-1.39-3.43-.04-.38-.04-.75,0-1.13l-13.83-6.4-11.13,10.83,12.22,17.83Zm1.26-30.84l13.49,5.74c.98-.8,2.21-1.22,3.48-1.18,.56,0,1.12,.09,1.65,.26l10.53-16.45L49.68,0,29.24,20.06s-.04,.22,0,.26Zm-5.04,34.02c.27-.51,.61-.97,1-1.39l-11.53-17.23L0,48.99l24.19,5.35h0Zm-1.09,2.92L2.22,52.9l9.18,9.31,11.57-4.92,.13-.04Z"/></svg>