<?xml version="1.0" encoding="UTF-8"?><svg id="a" xmlns="http://www.w3.org/2000/svg" viewBox="0 0 100 87.5"><defs><style>.b{fill:#7161f5;}</style></defs><path class="b" d="M81.68,28.36c-1.05-.35-2.11-.68-3.16-1,.18-.72,.33-1.45,.49-2.17,2.4-11.64,.82-21-4.51-24.08-5.14-2.95-13.52,.12-21.99,7.5-.84,.72-1.66,1.48-2.44,2.25-.53-.51-1.07-1.02-1.62-1.5C39.55,1.46,30.64-1.86,25.31,1.25c-5.12,2.97-6.64,11.78-4.49,22.79,.21,1.09,.45,2.17,.72,3.26-1.25,.35-2.48,.74-3.63,1.15C7.48,32.07,0,37.77,0,43.67s7.97,12.21,18.81,15.92c.88,.29,1.76,.59,2.66,.84-.29,1.17-.55,2.32-.78,3.52-2.05,10.84-.45,19.43,4.67,22.38,5.27,3.05,14.14-.08,22.77-7.64,.68-.61,1.37-1.23,2.05-1.89,.86,.84,1.76,1.64,2.66,2.42,8.36,7.19,16.62,10.1,21.72,7.15,5.27-3.05,6.99-12.29,4.77-23.54-.18-.86-.37-1.74-.59-2.64,.63-.18,1.23-.37,1.84-.57,11.27-3.73,19.43-9.77,19.43-15.96s-7.7-11.66-18.32-15.31h0ZM55.25,11.77c7.27-6.33,14.04-8.81,17.13-7.03,3.3,1.89,4.57,9.55,2.5,19.61-.14,.66-.27,1.31-.45,1.95-4.34-.98-8.73-1.68-13.14-2.07-2.54-3.63-5.31-7.11-8.32-10.37,.76-.72,1.5-1.41,2.29-2.09Zm-22.6,42.03c1,1.7,2.01,3.4,3.09,5.06-3.05-.33-6.07-.82-9.06-1.46,.86-2.81,1.93-5.72,3.18-8.69,.9,1.72,1.82,3.42,2.79,5.1h0Zm-5.92-23.5c2.81-.62,5.8-1.13,8.91-1.52-1.04,1.62-2.05,3.28-3.01,4.96-.96,1.66-1.89,3.36-2.77,5.08-1.23-2.91-2.27-5.76-3.12-8.52h0Zm5.35,13.46c1.29-2.7,2.7-5.33,4.18-7.93s3.09-5.12,4.77-7.6c2.93-.21,5.92-.33,8.96-.33s6.05,.12,8.96,.33c1.66,2.46,3.24,4.98,4.75,7.56s2.91,5.21,4.24,7.89c-1.31,2.7-2.71,5.35-4.22,7.97-1.48,2.6-3.07,5.12-4.73,7.62-2.91,.21-5.94,.31-9,.31s-6.04-.1-8.91-.27c-1.7-2.48-3.3-5.02-4.8-7.62s-2.89-5.23-4.2-7.93h0Zm35.27,10c1-1.72,1.93-3.46,2.85-5.21,1.25,2.83,2.34,5.7,3.3,8.65-3.03,.68-6.09,1.21-9.18,1.56,1.05-1.64,2.05-3.32,3.03-5h0Zm2.81-14.94c-.92-1.72-1.86-3.44-2.83-5.12-.96-1.66-1.95-3.3-2.99-4.92,3.14,.39,6.15,.92,8.96,1.56-.9,2.89-1.95,5.7-3.14,8.48Zm-20.14-21.97c2.05,2.23,3.98,4.57,5.78,6.99-3.87-.18-7.75-.18-11.62,0,1.91-2.52,3.89-4.86,5.84-6.99ZM27.38,4.88c3.28-1.91,10.57,.82,18.24,7.62,.49,.43,.98,.9,1.48,1.37-3.03,3.26-5.82,6.74-8.38,10.37-4.41,.39-8.79,1.07-13.12,2.03-.25-1-.47-2.01-.68-3.03-1.84-9.45-.62-16.58,2.46-18.36h0Zm-4.79,51.48c-.82-.23-1.62-.49-2.42-.76-4.16-1.31-8.89-3.38-12.3-6.09-1.97-1.37-3.3-3.48-3.67-5.84,0-3.57,6.17-8.14,15.08-11.25,1.11-.39,2.25-.74,3.38-1.07,1.33,4.24,2.93,8.4,4.79,12.42-1.88,4.08-3.5,8.3-4.84,12.6Zm22.77,19.14c-3.22,2.95-6.95,5.29-11.02,6.89-2.17,1.04-4.67,1.13-6.89,.25-3.11-1.8-4.39-8.69-2.64-17.97,.21-1.09,.45-2.19,.72-3.26,4.37,.94,8.79,1.58,13.26,1.91,2.58,3.65,5.41,7.15,8.44,10.43-.62,.61-1.25,1.19-1.88,1.74h0Zm4.79-4.75c-1.99-2.15-3.98-4.53-5.92-7.09,1.88,.08,3.81,.12,5.76,.12s3.98-.04,5.94-.14c-1.8,2.48-3.73,4.84-5.78,7.11Zm25.53,5.86c-.18,2.38-1.35,4.61-3.22,6.11-3.11,1.8-9.73-.55-16.87-6.68-.82-.7-1.64-1.46-2.48-2.25,2.99-3.3,5.74-6.8,8.24-10.47,4.47-.37,8.93-1.05,13.32-2.05,.2,.8,.37,1.6,.53,2.38,.96,4.22,1.11,8.61,.49,12.95h0Zm3.55-21c-.55,.18-1.09,.35-1.66,.51-1.37-4.26-3.05-8.42-4.98-12.46,1.88-3.98,3.46-8.09,4.79-12.29,1.02,.29,1.99,.61,2.93,.92,9.1,3.12,15.49,7.77,15.49,11.33,0,3.83-6.82,8.77-16.56,11.99Zm-29.24-2.93c4.94,0,8.95-4,8.95-8.95s-4-8.95-8.95-8.95-8.95,4-8.95,8.95,4,8.95,8.95,8.95h0Z"/></svg>