<?xml version="1.0" encoding="UTF-8"?><svg id="a" xmlns="http://www.w3.org/2000/svg" viewBox="0 0 100 75.01"><defs><style>.b{fill:#7161f5;}</style></defs><path class="b" d="M47.16,56.71c-.05,.09-.09,.17,0,0Zm38.93-13.59c-3.14,0-6.24,.72-9.06,2.11-.92-1.86-1.88-3.48-2.03-4.7-.19-1.42-.39-2.27-.17-3.95s1.2-4.08,1.19-4.25-.22-1.03-2.23-1.05-3.75,.39-3.95,.92c-.36,.97-.63,1.97-.83,2.98-.36,1.83-4.03,8.36-6.11,11.77-.69-1.33-1.27-2.5-1.39-3.44-.19-1.42-.39-2.27-.17-3.95s1.2-4.08,1.19-4.25-.22-1.03-2.23-1.05-3.75,.39-3.95,.92-.42,1.78-.83,2.98-5.3,12.08-6.58,14.91c-.66,1.44-1.22,2.59-1.63,3.38-.06,.12-.11,.2-.14,.27,.05-.08,.08-.16,.08-.12-.34,.67-.55,1.05-.55,1.05v.02c-.27,.5-.56,.95-.7,.95-.09,0-.3-1.31,.05-3.11,.73-3.78,2.47-9.66,2.45-9.86-.02-.11,.33-1.13-1.14-1.67-1.42-.52-1.94,.34-2.06,.34s-.22,.31-.22,.31c0,0,1.58-6.63-3.03-6.63-2.88,0-6.88,3.16-8.84,6.02-1.23,.67-3.91,2.13-6.72,3.67-1.08,.59-2.19,1.2-3.23,1.78-.08-.08-.14-.16-.22-.23-5.59-5.97-15.92-10.19-15.48-18.2,.16-2.92,1.17-10.59,19.85-19.91,15.31-7.63,27.56-5.53,29.66-.88,3.03,6.64-6.55,19-22.45,20.78-6.06,.67-9.25-1.67-10.04-2.55-.83-.92-.95-.97-1.27-.8-.52,.28-.19,1.09,0,1.58,.47,1.23,2.42,3.42,5.75,4.52,2.92,.95,10.03,1.48,18.62-1.84,9.65-3.72,17.17-14.08,14.96-22.75C60.39,.36,45.78-2.53,31.96,2.38c-8.23,2.92-17.14,7.52-23.54,13.5C.82,23-.4,29.21,.1,31.8c1.78,9.2,14.46,15.2,19.54,19.64-.25,.14-.48,.27-.7,.39-2.55,1.27-12.22,6.33-14.64,11.67-2.73,6.06,.45,10.41,2.55,11,6.53,1.81,13.22-1.45,16.81-6.81s3.16-12.36,1.5-15.55c-.02-.05-.05-.08-.06-.12,.66-.39,1.33-.78,2-1.17,1.3-.77,2.56-1.47,3.67-2.08-.63,1.69-1.08,3.72-1.31,6.66-.28,3.44,1.14,7.89,2.98,9.64,.81,.77,1.8,.78,2.4,.78,2.16,0,3.13-1.78,4.2-3.91,1.33-2.59,2.5-5.61,2.5-5.61,0,0-1.47,8.16,2.55,8.16,1.47,0,2.94-1.89,3.59-2.86v.02s.03-.06,.11-.19c.16-.23,.23-.38,.23-.38v-.05c.59-1.02,1.89-3.34,3.84-7.19,2.53-4.97,4.95-11.17,4.95-11.17,.23,1.36,.56,2.71,.97,4.03,.44,1.48,1.36,3.11,2.09,4.69-.59,.81-.95,1.28-.95,1.28,0,.01,0,.02,.02,.03-.47,.63-1,1.3-1.55,1.95-2,2.38-4.38,5.09-4.69,5.88-.38,.92-.28,1.61,.44,2.14,.53,.41,1.47,.47,2.45,.39,1.8-.12,3.06-.56,3.67-.84,1.12-.4,2.19-.96,3.15-1.66,1.95-1.44,3.14-3.5,3.03-6.22-.06-1.5-.55-3-1.14-4.41,.17-.25,.36-.52,.53-.78,3.09-4.52,5.48-9.47,5.48-9.47,.23,1.36,.56,2.71,.97,4.03,.38,1.27,1.11,2.66,1.78,4.02-2.9,2.36-4.7,5.09-5.33,6.89-1.16,3.33-.25,4.83,1.45,5.17,.77,.16,1.86-.2,2.67-.55,1.21-.4,2.34-.99,3.37-1.73,1.95-1.44,3.84-3.45,3.72-6.19-.05-1.23-.39-2.47-.84-3.66,2.45-1.03,5.64-1.59,9.7-1.13,8.7,1.02,10.4,6.45,10.08,8.72s-2.16,3.53-2.77,3.91-.8,.52-.75,.8c.08,.41,.36,.39,.88,.3,.72-.12,4.56-1.84,4.73-6.05,.25-5.31-4.86-11.16-13.91-11.11h0ZM19.03,65.72c-2.87,3.14-6.9,4.33-8.64,3.33-1.86-1.08-1.13-5.7,2.42-9.05,2.16-2.03,4.94-3.91,6.78-5.06,.42-.25,1.03-.63,1.78-1.08,.13-.08,.19-.11,.19-.11,.14-.09,.3-.17,.45-.27,1.3,4.75,.05,8.94-2.98,12.23h0Zm20.99-14.28c-1,2.45-3.11,8.7-4.39,8.38-1.09-.28-1.77-5.05-.22-9.73,.78-2.36,2.44-5.17,3.42-6.27,1.58-1.77,3.31-2.33,3.72-1.63,.55,.92-1.91,7.72-2.53,9.25h0Zm17.34,8.28c-.42,.22-.81,.36-1,.25-.14-.08,.17-.38,.17-.38,0,0,2.17-2.33,3.03-3.39,.5-.63,1.08-1.36,1.7-2.17,0,.08,.02,.16,.02,.25-.02,2.8-2.71,4.69-3.93,5.44h0Zm13.37-3.05c-.31-.22-.27-.95,.78-3.23,.41-.89,1.34-2.39,2.97-3.83,.18,.54,.28,1.11,.3,1.69-.02,3.52-2.53,4.83-4.05,5.38h0Z"/></svg>