<?xml version="1.0" encoding="UTF-8"?><svg id="a" xmlns="http://www.w3.org/2000/svg" viewBox="0 0 100 66.67"><defs><style>.b{fill:#7161f5;}</style></defs><path class="b" d="M50,0c-6.84,0-12.72,1.85-17.34,5.8-4.58,3.93-7.58,9.65-9.24,16.77-.36,1.56,.43,3.15,1.89,3.8,1.46,.65,3.17,.18,4.09-1.13,2.11-3.02,4.22-4.83,6.24-5.76,1.96-.9,4.08-1.08,6.5-.43,2.44,.65,4.34,2.57,7.3,5.8l.1,.1c2.24,2.43,4.97,5.41,8.7,7.71,3.88,2.39,8.7,4,15.09,4,6.84,0,12.72-1.85,17.34-5.8,4.58-3.93,7.58-9.65,9.24-16.77,.36-1.56-.43-3.15-1.89-3.8-1.46-.65-3.17-.18-4.09,1.13-2.11,3.02-4.22,4.83-6.24,5.76-1.96,.9-4.08,1.08-6.5,.43-2.44-.65-4.34-2.57-7.3-5.8l-.1-.1c-2.24-2.43-4.97-5.41-8.7-7.71-3.88-2.39-8.7-4-15.09-4Z"/><path class="b" d="M26.67,30c-6.84,0-12.72,1.85-17.34,5.8C4.75,39.73,1.75,45.45,.09,52.58c-.36,1.56,.43,3.15,1.89,3.8,1.46,.65,3.17,.18,4.09-1.13,2.11-3.02,4.22-4.83,6.24-5.76,1.96-.9,4.08-1.08,6.5-.43,2.44,.65,4.34,2.57,7.3,5.8l.1,.1c2.24,2.43,4.97,5.41,8.7,7.71,3.88,2.39,8.7,4,15.09,4,6.84,0,12.72-1.85,17.34-5.8,4.58-3.93,7.58-9.65,9.24-16.77,.36-1.56-.43-3.15-1.89-3.8-1.46-.65-3.17-.18-4.09,1.13-2.11,3.02-4.22,4.83-6.24,5.76-1.96,.9-4.08,1.08-6.5,.43-2.44-.65-4.34-2.57-7.3-5.8l-.1-.1c-2.24-2.43-4.97-5.41-8.7-7.71-3.88-2.39-8.7-4-15.09-4Z"/></svg>