<?xml version="1.0" encoding="UTF-8"?><svg id="a" xmlns="http://www.w3.org/2000/svg" viewBox="0 0 100 81.22"><defs><style>.b{fill:#7161f5;}</style></defs><path class="b" d="M89.72,20.24c.06,.89,.06,1.78,.06,2.67,0,27.09-20.62,58.31-58.31,58.31-11.61,0-22.4-3.36-31.47-9.2,1.65,.19,3.24,.25,4.95,.25,9.58,0,18.4-3.24,25.44-8.76-9.01-.19-16.56-6.09-19.16-14.21,1.27,.19,2.54,.32,3.87,.32,1.84,0,3.68-.25,5.39-.7-9.39-1.9-16.43-10.15-16.43-20.11v-.25c2.73,1.52,5.9,2.47,9.26,2.6-5.52-3.68-9.14-9.96-9.14-17.07,0-3.81,1.02-7.3,2.79-10.34,10.09,12.44,25.25,20.56,42.26,21.45-.32-1.52-.51-3.11-.51-4.7C48.73,9.2,57.87,0,69.23,0c5.9,0,11.23,2.47,14.97,6.47,4.63-.89,9.07-2.6,13.01-4.95-1.52,4.76-4.76,8.76-9.01,11.29,4.12-.44,8.12-1.59,11.8-3.17-2.79,4.06-6.28,7.68-10.28,10.6h0Z"/></svg>