<?xml version="1.0" encoding="UTF-8"?><svg id="a" xmlns="http://www.w3.org/2000/svg" viewBox="0 0 100 100.79"><defs><style>.b{fill:#7161f5;fill-rule:evenodd;}</style></defs><path class="b" d="M33.57,56.89c-3.02,2.3-5.97,4.55-8.92,6.8-5.9,4.5-11.82,8.99-17.7,13.53-.78,.6-1.41,.67-2.26,.18-1.21-.71-2.49-1.3-3.74-1.93C.28,75.12,0,74.61,0,73.85c0-15.64,0-31.27,.05-46.91,0-.51,.45-1.22,.89-1.49,1.34-.82,2.78-1.45,4.17-2.18,.76-.4,1.33-.06,1.92,.39,4.86,3.72,9.73,7.44,14.59,11.15,3.99,3.04,7.98,6.08,12.01,9.16,.29-.27,.56-.52,.82-.77C49,29.02,63.55,14.85,78.09,.66c.74-.72,1.39-.82,2.32-.44,6.16,2.5,12.34,4.94,18.48,7.47,.45,.19,.78,.82,1.03,1.31,.15,.29,.04,.72,.04,1.09,0,26.88,0,53.77,0,80.65,0,2,0,1.99-1.91,2.75-5.86,2.34-11.73,4.67-17.57,7.06-1.03,.42-1.69,.29-2.48-.48-14.4-14.04-28.83-28.05-43.25-42.07-.36-.35-.73-.68-1.19-1.11Zm41.94,12.76V31.2c-8.6,6.43-17.06,12.77-25.6,19.15,8.56,6.45,17.02,12.82,25.6,19.29ZM21.82,50.37c-4.3-3.84-8.49-7.58-12.76-11.4v22.98c4.32-3.92,8.49-7.71,12.76-11.58Z"/></svg>