<?xml version="1.0" encoding="UTF-8"?><svg id="a" xmlns="http://www.w3.org/2000/svg" viewBox="0 0 100 100"><defs><style>.b{fill:#7161f5;}</style></defs><path class="b" d="M10.83,32.54l20.46,56.05c-14.31-6.94-24.17-21.61-24.17-38.59,0-6.23,1.33-12.12,3.71-17.46Zm68.13,15.3c0-5.3-1.9-8.97-3.53-11.83-2.18-3.53-4.21-6.53-4.21-10.06,0-3.95,2.98-7.62,7.2-7.62,.18,0,.36,.02,.56,.04-7.64-7-17.8-11.27-28.97-11.27-14.98,0-28.17,7.68-35.85,19.33,1.01,.04,1.96,.06,2.76,.06,4.48,0,11.43-.54,11.43-.54,2.32-.14,2.58,3.27,.28,3.53,0,0-2.32,.26-4.9,.4l15.62,46.45,9.4-28.15-6.67-18.31c-2.32-.14-4.5-.4-4.5-.4-2.32-.14-2.04-3.67,.26-3.53,0,0,7.08,.54,11.29,.54,4.48,0,11.43-.54,11.43-.54,2.32-.14,2.58,3.27,.28,3.53,0,0-2.32,.26-4.9,.4l15.5,46.11,4.27-14.29c1.81-5.93,3.23-10.18,3.23-13.85h0Zm-28.21,5.91l-12.86,37.4c3.85,1.13,7.9,1.75,12.12,1.75,5,0,9.78-.87,14.23-2.44-.12-.18-.22-.38-.3-.58l-13.19-36.13Zm36.9-24.33c.18,1.37,.28,2.82,.28,4.42,0,4.35-.81,9.23-3.27,15.36l-13.1,37.88c12.76-7.44,21.33-21.25,21.33-37.08,0-7.46-1.9-14.48-5.24-20.58h0Zm12.36,20.58c0,27.58-22.44,50-50,50S0,77.56,0,50,22.42,0,50,0s50,22.42,50,50Zm-2.3,0c0-26.31-21.41-47.7-47.7-47.7-26.31,0-47.7,21.39-47.7,47.7s21.41,47.7,47.7,47.7,47.7-21.39,47.7-47.7Z"/></svg>