{
    "asset" : {
        "generator" : "Khronos glTF Blender I/O v1.8.19",
        "version" : "2.0"
    },
    "scene" : 0,
    "scenes" : [
        {
            "extras" : {
                "uiListCollec" : [
                    {
                        "idx" : 0,
                        "val" : 0.15021544694900513,
                        "color" : [
                            0.0,
                            0.0,
                            0.0,
                            1.0
                        ]
                    },
                    {
                        "idx" : 1,
                        "val" : 2.620821237564087,
                        "color" : [
                            1.0,
                            1.0,
                            1.0,
                            1.0
                        ]
                    }
                ]
            },
            "name" : "Scene",
            "nodes" : [
                0
            ]
        }
    ],
    "nodes" : [
        {
            "mesh" : 0,
            "name" : "Sphere"
        }
    ],
    "materials" : [
        {
            "doubleSided" : true,
            "name" : "Material",
            "normalTexture" : {
                "index" : 0
            },
            "pbrMetallicRoughness" : {
                "baseColorFactor" : [
                    0.16513200104236603,
                    0.11953850090503693,
                    0.9130989909172058,
                    1
                ],
                "roughnessFactor" : 0.5
            }
        }
    ],
    "meshes" : [
        {
            "name" : "Torus",
            "primitives" : [
                {
                    "attributes" : {
                        "POSITION" : 0,
                        "NORMAL" : 1,
                        "TANGENT" : 2,
                        "TEXCOORD_0" : 3
                    },
                    "indices" : 4,
                    "material" : 0
                }
            ]
        }
    ],
    "textures" : [
        {
            "sampler" : 0,
            "source" : 0
        }
    ],
    "images" : [
        {
            "mimeType" : "image/png",
            "name" : "Sphere normal",
            "uri" : "Textures/Sphere%20normal.png"
        }
    ],
    "accessors" : [
        {
            "bufferView" : 0,
            "componentType" : 5126,
            "count" : 73728,
            "max" : [
                1.2353026866912842,
                1.2353029251098633,
                1.2353025674819946
            ],
            "min" : [
                -1.2353029251098633,
                -1.2353026866912842,
                -1.2353026866912842
            ],
            "type" : "VEC3"
        },
        {
            "bufferView" : 1,
            "componentType" : 5126,
            "count" : 73728,
            "type" : "VEC3"
        },
        {
            "bufferView" : 2,
            "componentType" : 5126,
            "count" : 73728,
            "type" : "VEC4"
        },
        {
            "bufferView" : 3,
            "componentType" : 5126,
            "count" : 73728,
            "type" : "VEC2"
        },
        {
            "bufferView" : 4,
            "componentType" : 5125,
            "count" : 110592,
            "type" : "SCALAR"
        }
    ],
    "bufferViews" : [
        {
            "buffer" : 0,
            "byteLength" : 884736,
            "byteOffset" : 0
        },
        {
            "buffer" : 0,
            "byteLength" : 884736,
            "byteOffset" : 884736
        },
        {
            "buffer" : 0,
            "byteLength" : 1179648,
            "byteOffset" : 1769472
        },
        {
            "buffer" : 0,
            "byteLength" : 589824,
            "byteOffset" : 2949120
        },
        {
            "buffer" : 0,
            "byteLength" : 442368,
            "byteOffset" : 3538944
        }
    ],
    "samplers" : [
        {
            "magFilter" : 9729,
            "minFilter" : 9987
        }
    ],
    "buffers" : [
        {
            "byteLength" : 3981312,
            "uri" : "Sphere.bin"
        }
    ]
}
