<?xml version="1.0" encoding="UTF-8"?><svg id="a" xmlns="http://www.w3.org/2000/svg" viewBox="0 0 100 79.7"><defs><style>.b{fill:#7161f5;}</style></defs><path class="b" d="M58.1,30.14c0-3.93-2.78-6.1-7.65-6.1h-8.97v12.67h7.56c5.84-.02,9.06-2.37,9.06-6.57Zm32.65-2.28c-1.69-5.5-1.94-12.24-1.74-17.46,.2-5.43-4.04-10.41-9.73-10.41H20.77c-5.71,0-9.93,5-9.73,10.41,.18,5.21-.05,11.96-1.74,17.46-1.71,5.52-4.57,9-9.29,9.45v5.07c4.7,.44,7.58,3.93,9.29,9.45,1.69,5.5,1.94,12.24,1.74,17.46-.2,5.43,4.04,10.41,9.73,10.41h58.49c5.71,0,9.93-5,9.73-10.41-.18-5.21,.05-11.96,1.74-17.46,1.71-5.52,4.57-9,9.27-9.45v-5.07c-4.68-.44-7.56-3.93-9.25-9.45ZM52.17,61.05h-17.42V18.65h17.33c7.7,0,12.76,4.16,12.76,10.57,0,4.5-3.4,8.52-7.74,9.22v.23c5.91,.64,9.88,4.73,9.88,10.37,0,7.49-5.57,12.01-14.8,12.01Zm-1.78-19.34h-8.91v13.95h9.31c6.09,0,9.31-2.44,9.31-7.03,0-4.57-3.31-6.92-9.7-6.92Z"/></svg>