<?xml version="1.0" encoding="UTF-8"?><svg id="a" xmlns="http://www.w3.org/2000/svg" viewBox="0 0 100 100"><defs><style>.b{fill:#7161f5;}</style></defs><path class="b" d="M89.29,0H10.71C4.8,0,0,4.8,0,10.71V89.29c0,5.92,4.8,10.71,10.71,10.71H89.29c5.92,0,10.71-4.8,10.71-10.71V10.71c0-5.92-4.8-10.71-10.71-10.71ZM54.42,77.99c0,9.73-5.71,14.17-14.04,14.17-7.52,0-11.87-3.88-14.11-8.59l7.66-4.62c1.47,2.61,2.81,4.82,6.05,4.82s5.04-1.21,5.04-5.92v-31.94h9.4v32.08h0Zm22.23,14.17c-8.73,0-14.37-4.15-17.12-9.6l7.66-4.42c2.01,3.28,4.64,5.71,9.26,5.71,3.88,0,6.38-1.94,6.38-4.64,0-3.21-2.54-4.35-6.85-6.25l-2.34-1c-6.79-2.88-11.27-6.52-11.27-14.17,0-7.05,5.38-12.41,13.75-12.41,5.98,0,10.27,2.08,13.35,7.52l-7.32,4.69c-1.61-2.88-3.35-4.02-6.05-4.02s-4.49,1.74-4.49,4.02c0,2.81,1.74,3.95,5.78,5.71l2.34,1c7.99,3.42,12.48,6.92,12.48,14.78,0,8.44-6.65,13.08-15.56,13.08h0Z"/></svg>