<?xml version="1.0" encoding="UTF-8"?><svg id="a" xmlns="http://www.w3.org/2000/svg" xmlns:xlink="http://www.w3.org/1999/xlink" viewBox="0 0 480 270"><defs><style>.e{filter:url(#c);}.f{fill:#ebe8fe;}.g{fill:url(#b);}</style><linearGradient id="b" x1="0" y1="135" x2="480" y2="135" gradientTransform="matrix(1, 0, 0, 1, 0, 0)" gradientUnits="userSpaceOnUse"><stop offset="0" stop-color="#7161f5"/><stop offset=".16" stop-color="#6354db"/><stop offset=".5" stop-color="#403599"/><stop offset=".99" stop-color="#080431"/><stop offset="1" stop-color="#07032e"/></linearGradient><filter id="c" filterUnits="userSpaceOnUse"><feOffset dx="5" dy="5"/><feGaussianBlur result="d" stdDeviation="15"/><feFlood flood-color="#000" flood-opacity=".75"/><feComposite in2="d" operator="in"/><feComposite in="SourceGraphic"/></filter></defs><rect class="g" width="480" height="270"/><g class="e"><path class="f" d="M85.18,75.11c0-3.33-.11-6.02-.22-8.49h4.25l.21,4.46h.11c1.94-3.17,5-5.05,9.25-5.05,6.29,0,11.02,5.32,11.02,13.22,0,9.35-5.7,13.98-11.83,13.98-3.44,0-6.45-1.51-8.01-4.09h-.11v14.14h-4.68v-28.17Zm4.68,6.93c0,.7,.11,1.34,.21,1.93,.86,3.28,3.71,5.54,7.1,5.54,5,0,7.9-4.08,7.9-10.05,0-5.21-2.74-9.68-7.74-9.68-3.23,0-6.24,2.31-7.15,5.86-.16,.59-.32,1.29-.32,1.94v4.46Z"/><path class="f" d="M115.76,74.73c0-3.06-.05-5.7-.22-8.12h4.14l.16,5.11h.21c1.18-3.49,4.03-5.7,7.2-5.7,.54,0,.91,.05,1.34,.16v4.46c-.48-.11-.97-.16-1.61-.16-3.33,0-5.7,2.53-6.34,6.07-.11,.65-.21,1.4-.21,2.2v13.87h-4.68v-17.9Z"/><path class="f" d="M156.34,79.41c0,9.62-6.67,13.82-12.96,13.82-7.04,0-12.47-5.16-12.47-13.39,0-8.71,5.7-13.82,12.9-13.82s12.53,5.43,12.53,13.38Zm-20.64,.27c0,5.7,3.28,10,7.9,10s7.9-4.25,7.9-10.11c0-4.41-2.2-10-7.79-10s-8.01,5.16-8.01,10.11Z"/><path class="f" d="M155.96,100.16c2.15-.16,4.03-.75,5.16-1.99,1.29-1.5,1.77-3.55,1.77-9.78v-21.77h4.73v23.6c0,5.05-.81,8.33-3.12,10.7-2.1,2.1-5.54,2.96-8.06,2.96l-.48-3.71Zm12.2-40.86c.05,1.56-1.08,2.9-2.96,2.9-1.77,0-2.9-1.34-2.9-2.9,0-1.67,1.24-2.96,3.01-2.96s2.85,1.29,2.85,2.96Z"/><path class="f" d="M178,80.48c.11,6.4,4.19,9.03,8.92,9.03,3.39,0,5.43-.59,7.2-1.34l.81,3.39c-1.67,.75-4.52,1.61-8.65,1.61-8.01,0-12.79-5.27-12.79-13.12s4.62-14.03,12.2-14.03c8.49,0,10.75,7.47,10.75,12.26,0,.97-.11,1.72-.16,2.2h-18.28Zm13.87-3.39c.05-3.01-1.24-7.69-6.56-7.69-4.78,0-6.88,4.41-7.26,7.69h13.82Z"/><path class="f" d="M220.84,91.67c-1.24,.65-3.98,1.5-7.47,1.5-7.85,0-12.96-5.32-12.96-13.28s5.48-13.82,13.98-13.82c2.8,0,5.27,.7,6.56,1.34l-1.08,3.66c-1.13-.64-2.9-1.24-5.48-1.24-5.97,0-9.19,4.41-9.19,9.84,0,6.02,3.87,9.73,9.03,9.73,2.69,0,4.46-.7,5.81-1.29l.81,3.55Z"/><path class="f" d="M232.77,59.14v7.47h6.77v3.6h-6.77v14.03c0,3.23,.91,5.05,3.55,5.05,1.24,0,2.15-.16,2.74-.32l.21,3.55c-.91,.38-2.37,.64-4.19,.64-2.2,0-3.98-.7-5.11-1.99-1.34-1.4-1.83-3.71-1.83-6.77v-14.19h-4.03v-3.6h4.03v-6.24l4.62-1.24Z"/><path class="f" d="M258.14,66.61l3.44,13.22c.75,2.9,1.45,5.59,1.94,8.28h.16c.59-2.63,1.45-5.43,2.31-8.22l4.25-13.28h3.98l4.03,13.01c.97,3.12,1.72,5.86,2.31,8.49h.16c.43-2.63,1.13-5.38,1.99-8.44l3.71-13.06h4.68l-8.39,26.02h-4.3l-3.98-12.42c-.91-2.9-1.67-5.48-2.31-8.55h-.11c-.65,3.12-1.45,5.81-2.37,8.6l-4.19,12.36h-4.3l-7.85-26.02h4.84Z"/><path class="f" d="M301.09,59.3c.05,1.61-1.13,2.9-3.01,2.9-1.67,0-2.85-1.29-2.85-2.9s1.24-2.96,2.96-2.96,2.9,1.29,2.9,2.96Zm-5.27,33.33v-26.02h4.73v26.02h-4.73Z"/><path class="f" d="M308.4,54.47h4.73v38.17h-4.73V54.47Z"/><path class="f" d="M321.08,54.47h4.73v38.17h-4.73V54.47Z"/><path class="f" d="M344.95,92.63c.11-1.77,.21-4.41,.21-6.72v-31.45h4.68v16.34h.11c1.67-2.9,4.68-4.78,8.87-4.78,6.45,0,11.02,5.38,10.97,13.28,0,9.3-5.86,13.92-11.67,13.92-3.76,0-6.77-1.45-8.71-4.89h-.16l-.21,4.3h-4.09Zm4.89-10.43c0,.59,.11,1.18,.21,1.72,.91,3.28,3.66,5.54,7.1,5.54,4.95,0,7.9-4.03,7.9-10,0-5.21-2.69-9.68-7.74-9.68-3.23,0-6.24,2.2-7.2,5.81-.11,.54-.27,1.18-.27,1.94v4.68Z"/><path class="f" d="M378.38,80.48c.11,6.4,4.19,9.03,8.92,9.03,3.39,0,5.43-.59,7.2-1.34l.81,3.39c-1.67,.75-4.52,1.61-8.65,1.61-8.01,0-12.79-5.27-12.79-13.12s4.62-14.03,12.2-14.03c8.49,0,10.75,7.47,10.75,12.26,0,.97-.11,1.72-.16,2.2h-18.28Zm13.87-3.39c.05-3.01-1.24-7.69-6.56-7.69-4.78,0-6.88,4.41-7.26,7.69h13.82Z"/><path class="f" d="M119.39,152.29c1.4,.91,3.87,1.88,6.24,1.88,3.44,0,5.05-1.72,5.05-3.87,0-2.26-1.34-3.49-4.84-4.78-4.68-1.67-6.88-4.25-6.88-7.37,0-4.19,3.39-7.63,8.98-7.63,2.63,0,4.95,.75,6.4,1.61l-1.18,3.44c-1.02-.64-2.9-1.5-5.32-1.5-2.79,0-4.35,1.61-4.35,3.55,0,2.15,1.56,3.12,4.95,4.41,4.52,1.72,6.83,3.98,6.83,7.85,0,4.57-3.55,7.79-9.73,7.79-2.85,0-5.48-.7-7.31-1.77l1.18-3.6Z"/><path class="f" d="M141.32,118.97h4.73v16.23h.11c.75-1.34,1.94-2.53,3.39-3.33,1.4-.81,3.06-1.34,4.84-1.34,3.49,0,9.08,2.15,9.08,11.13v15.48h-4.73v-14.94c0-4.19-1.56-7.74-6.02-7.74-3.06,0-5.48,2.15-6.34,4.73-.27,.65-.32,1.34-.32,2.26v15.7h-4.73v-38.17Z"/><path class="f" d="M194.69,143.91c0,9.62-6.67,13.82-12.96,13.82-7.04,0-12.47-5.16-12.47-13.39,0-8.71,5.7-13.82,12.9-13.82s12.53,5.43,12.53,13.38Zm-20.64,.27c0,5.7,3.28,10,7.9,10s7.9-4.25,7.9-10.11c0-4.41-2.2-10-7.79-10s-8.01,5.16-8.01,10.11Z"/><path class="f" d="M202.16,131.11l3.44,13.22c.75,2.9,1.45,5.59,1.94,8.28h.16c.59-2.63,1.45-5.43,2.31-8.22l4.25-13.28h3.98l4.03,13.01c.97,3.12,1.72,5.86,2.31,8.49h.16c.43-2.63,1.13-5.38,1.99-8.44l3.71-13.06h4.68l-8.39,26.02h-4.3l-3.98-12.42c-.91-2.9-1.67-5.48-2.31-8.55h-.11c-.65,3.12-1.45,5.81-2.37,8.6l-4.19,12.36h-4.3l-7.85-26.02h4.84Z"/><path class="f" d="M257.85,156.17c-1.24,.65-3.98,1.5-7.47,1.5-7.85,0-12.96-5.32-12.96-13.28s5.48-13.82,13.98-13.82c2.8,0,5.27,.7,6.56,1.34l-1.07,3.66c-1.13-.64-2.9-1.24-5.48-1.24-5.97,0-9.19,4.41-9.19,9.84,0,6.02,3.87,9.73,9.03,9.73,2.69,0,4.46-.7,5.81-1.29l.81,3.55Z"/><path class="f" d="M277.79,157.13l-.38-3.28h-.16c-1.45,2.04-4.25,3.87-7.96,3.87-5.27,0-7.96-3.71-7.96-7.47,0-6.29,5.59-9.73,15.64-9.68v-.54c0-2.15-.59-6.02-5.91-6.02-2.42,0-4.95,.75-6.77,1.94l-1.08-3.12c2.15-1.4,5.27-2.31,8.55-2.31,7.96,0,9.89,5.43,9.89,10.64v9.73c0,2.26,.11,4.46,.43,6.24h-4.3Zm-.7-13.28c-5.16-.11-11.02,.81-11.02,5.86,0,3.06,2.04,4.51,4.46,4.51,3.39,0,5.54-2.15,6.29-4.35,.16-.48,.27-1.02,.27-1.51v-4.52Z"/><path class="f" d="M288.64,152.29c1.4,.91,3.87,1.88,6.24,1.88,3.44,0,5.05-1.72,5.05-3.87,0-2.26-1.34-3.49-4.84-4.78-4.68-1.67-6.88-4.25-6.88-7.37,0-4.19,3.39-7.63,8.98-7.63,2.63,0,4.95,.75,6.4,1.61l-1.18,3.44c-1.02-.64-2.9-1.5-5.32-1.5-2.79,0-4.35,1.61-4.35,3.55,0,2.15,1.56,3.12,4.95,4.41,4.52,1.72,6.83,3.98,6.83,7.85,0,4.57-3.55,7.79-9.73,7.79-2.85,0-5.48-.7-7.31-1.77l1.18-3.6Z"/><path class="f" d="M313.21,144.98c.11,6.4,4.19,9.03,8.92,9.03,3.39,0,5.43-.59,7.2-1.34l.81,3.39c-1.67,.75-4.52,1.61-8.66,1.61-8.01,0-12.79-5.27-12.79-13.12s4.62-14.03,12.2-14.03c8.49,0,10.75,7.47,10.75,12.26,0,.97-.11,1.72-.16,2.2h-18.28Zm13.87-3.39c.05-3.01-1.24-7.69-6.56-7.69-4.79,0-6.88,4.41-7.26,7.69h13.82Z"/><path class="f" d="M359.97,118.97v31.45c0,2.31,.05,4.95,.21,6.72h-4.25l-.21-4.52h-.11c-1.45,2.9-4.62,5.11-8.87,5.11-6.29,0-11.13-5.32-11.13-13.22-.05-8.66,5.32-13.98,11.67-13.98,3.98,0,6.67,1.88,7.85,3.98h.11v-15.54h4.73Zm-4.73,22.74c0-.59-.05-1.4-.21-1.99-.7-3.01-3.28-5.48-6.83-5.48-4.89,0-7.79,4.3-7.79,10.05,0,5.27,2.58,9.62,7.69,9.62,3.17,0,6.08-2.1,6.94-5.64,.16-.64,.21-1.29,.21-2.04v-4.51Z"/><path class="f" d="M188.21,216.79c1.4,.91,3.87,1.88,6.24,1.88,3.44,0,5.05-1.72,5.05-3.87,0-2.26-1.34-3.49-4.84-4.78-4.68-1.67-6.88-4.25-6.88-7.37,0-4.19,3.39-7.63,8.98-7.63,2.63,0,4.95,.75,6.4,1.61l-1.18,3.44c-1.02-.64-2.9-1.5-5.32-1.5-2.79,0-4.35,1.61-4.35,3.55,0,2.15,1.56,3.12,4.95,4.41,4.52,1.72,6.83,3.98,6.83,7.85,0,4.57-3.55,7.79-9.73,7.79-2.85,0-5.48-.7-7.31-1.77l1.18-3.6Z"/><path class="f" d="M233.69,208.41c0,9.62-6.67,13.82-12.96,13.82-7.04,0-12.47-5.16-12.47-13.39,0-8.71,5.7-13.82,12.9-13.82s12.53,5.43,12.53,13.38Zm-20.64,.27c0,5.7,3.28,10,7.9,10s7.9-4.25,7.9-10.11c0-4.41-2.2-10-7.79-10s-8.01,5.16-8.01,10.11Z"/><path class="f" d="M263.2,208.41c0,9.62-6.67,13.82-12.96,13.82-7.04,0-12.47-5.16-12.47-13.39,0-8.71,5.7-13.82,12.9-13.82s12.53,5.43,12.53,13.38Zm-20.64,.27c0,5.7,3.28,10,7.9,10s7.9-4.25,7.9-10.11c0-4.41-2.2-10-7.79-10s-8.01,5.16-8.01,10.11Z"/><path class="f" d="M269.16,202.66c0-2.69-.05-4.89-.22-7.04h4.19l.27,4.3h.11c1.29-2.47,4.3-4.89,8.6-4.89,3.6,0,9.19,2.15,9.19,11.07v15.54h-4.73v-15c0-4.19-1.56-7.69-6.02-7.69-3.12,0-5.54,2.2-6.34,4.84-.22,.59-.32,1.4-.32,2.2v15.64h-4.73v-18.98Z"/></g></svg>