{
    "asset" : {
        "generator" : "Khronos glTF Blender I/O v1.8.19",
        "version" : "2.0"
    },
    "scene" : 0,
    "scenes" : [
        {
            "extras" : {
                "uiListCollec" : [
                    {
                        "idx" : 0,
                        "val" : 0.15021544694900513,
                        "color" : [
                            0.0,
                            0.0,
                            0.0,
                            1.0
                        ]
                    },
                    {
                        "idx" : 1,
                        "val" : 2.620821237564087,
                        "color" : [
                            1.0,
                            1.0,
                            1.0,
                            1.0
                        ]
                    }
                ]
            },
            "name" : "Scene",
            "nodes" : [
                0
            ]
        }
    ],
    "nodes" : [
        {
            "mesh" : 0,
            "name" : "TwistedTorus"
        }
    ],
    "materials" : [
        {
            "doubleSided" : true,
            "name" : "Material",
            "pbrMetallicRoughness" : {
                "baseColorFactor" : [
                    0.16513200104236603,
                    0.11953850090503693,
                    0.9130989909172058,
                    1
                ],
                "roughnessFactor" : 0.5
            }
        }
    ],
    "meshes" : [
        {
            "extras" : {
                "TwistedTorus" : 1,
                "change" : 0,
                "major_radius" : 1.0,
                "minor_radius" : 0.25,
                "major_segments" : 48,
                "minor_segments" : 12,
                "twists" : 1,
                "use_abso" : 0,
                "abso_major_rad" : 1.0,
                "abso_minor_rad" : 0.5
            },
            "name" : "TwistedTorus",
            "primitives" : [
                {
                    "attributes" : {
                        "POSITION" : 0,
                        "NORMAL" : 1
                    },
                    "indices" : 2,
                    "material" : 0
                }
            ]
        }
    ],
    "accessors" : [
        {
            "bufferView" : 0,
            "componentType" : 5126,
            "count" : 9216,
            "max" : [
                1.2346274852752686,
                1.1596626043319702,
                1.2346274852752686
            ],
            "min" : [
                -1.2346274852752686,
                -1.1596627235412598,
                -1.2346274852752686
            ],
            "type" : "VEC3"
        },
        {
            "bufferView" : 1,
            "componentType" : 5126,
            "count" : 9216,
            "type" : "VEC3"
        },
        {
            "bufferView" : 2,
            "componentType" : 5123,
            "count" : 55296,
            "type" : "SCALAR"
        }
    ],
    "bufferViews" : [
        {
            "buffer" : 0,
            "byteLength" : 110592,
            "byteOffset" : 0
        },
        {
            "buffer" : 0,
            "byteLength" : 110592,
            "byteOffset" : 110592
        },
        {
            "buffer" : 0,
            "byteLength" : 110592,
            "byteOffset" : 221184
        }
    ],
    "buffers" : [
        {
            "byteLength" : 331776,
            "uri" : "Sphere2.bin"
        }
    ]
}
